<svg version="1.2" xmlns="http://www.w3.org/2000/svg" viewBox="0 0 750 376" width="750" height="376"><defs><clipPath clipPathUnits="userSpaceOnUse" id="cp1"><path d="m22 180h121v115h-121z"/></clipPath><clipPath clipPathUnits="userSpaceOnUse" id="cp2"><path d="m13.49 93.52l239.97-15.4 13.24 206.37-239.96 15.4z"/></clipPath><clipPath clipPathUnits="userSpaceOnUse" id="cp3"><path d="m253.46 78.12l-239.97 15.4 13.25 206.37 239.96-15.4z"/></clipPath><clipPath clipPathUnits="userSpaceOnUse" id="cp4"><path d="m22 103h235v171h-235z"/></clipPath><clipPath clipPathUnits="userSpaceOnUse" id="cp5"><path d="m13.49 93.52l239.97-15.4 13.24 206.37-239.96 15.4z"/></clipPath><clipPath clipPathUnits="userSpaceOnUse" id="cp6"><path d="m253.46 78.12l-239.97 15.4 13.25 206.37 239.96-15.4z"/></clipPath><clipPath clipPathUnits="userSpaceOnUse" id="cp7"><path d="m41 113h206v116h-206z"/></clipPath><clipPath clipPathUnits="userSpaceOnUse" id="cp8"><path d="m13.49 93.52l239.97-15.4 13.24 206.37-239.96 15.4z"/></clipPath><clipPath clipPathUnits="userSpaceOnUse" id="cp9"><path d="m253.46 78.12l-239.97 15.4 13.25 206.37 239.96-15.4z"/></clipPath><clipPath clipPathUnits="userSpaceOnUse" id="cp10"><path d="m187.32 44.21h40.98v40.99h-40.98z"/></clipPath><clipPath clipPathUnits="userSpaceOnUse" id="cp11"><path d="m207.81 44.21c-11.32 0-20.49 9.18-20.49 20.5 0 11.32 9.17 20.49 20.49 20.49 11.32 0 20.49-9.17 20.49-20.49 0-11.32-9.17-20.5-20.49-20.5z"/></clipPath><clipPath clipPathUnits="userSpaceOnUse" id="cp12"><path d="m148 128h55v50h-55z"/></clipPath><clipPath clipPathUnits="userSpaceOnUse" id="cp13"><path d="m204.66 176.56l-55.26 2.24-1.95-48.05 55.25-2.25z"/></clipPath><clipPath clipPathUnits="userSpaceOnUse" id="cp14"><path d="m204.66 176.56l-55.26 2.24-1.95-48.05 55.25-2.25z"/></clipPath><clipPath clipPathUnits="userSpaceOnUse" id="cp15"><path d="m38.06 44.21h40.99v40.99h-40.99z"/></clipPath><clipPath clipPathUnits="userSpaceOnUse" id="cp16"><path d="m58.55 44.21c-11.32 0-20.49 9.18-20.49 20.5 0 11.32 9.17 20.49 20.49 20.49 11.32 0 20.5-9.17 20.5-20.49 0-11.32-9.18-20.5-20.5-20.5z"/></clipPath><clipPath clipPathUnits="userSpaceOnUse" id="cp17"><path d="m35.95 46.62h38.48v40.88h-38.48z"/></clipPath><clipPath clipPathUnits="userSpaceOnUse" id="cp18"><path d="m184.71 46.62h38.48v40.88h-38.48z"/></clipPath></defs><style>.a{fill:#737373}.b{fill:#333}.c{fill:#a6a6a6}.d{fill:none;stroke:#a6a6a6;stroke-linecap:round;stroke-width:9.7}.e{fill:#545454}</style><g clip-path="url(#cp1)"><g clip-path="url(#cp2)"><g clip-path="url(#cp3)"><path class="a" d="m42.9 263.2c18.5 20.7 34.4 29.6 61.5 31.5-10.8-5.2-15.6-16.5-16.9-22.5 4 0.3 8 0.6 12.1 0.8 14.4 0.9 28.8 1.2 43.2 0.9-56.1-5.6-103.1-42.6-119.8-93.2-0.7 29.1 0 60.3 19.9 82.5z"/></g></g></g><g clip-path="url(#cp4)"><g clip-path="url(#cp5)"><g clip-path="url(#cp6)"><path class="b" d="m23 180.7c16.7 50.6 63.7 87.6 119.8 93.2q15.7-0.2 31.3-1.7c8-0.8 17.2-1.8 26.4-3.6 15.1-2.9 30.3-8 39.9-18.5q1.2-1.4 2.4-2.9c19.9-26.4 14.2-75 7.4-104.9-6.3-28.2-31.4-38.4-58.3-36.8-37.5-1.2-169.2-12.2-168.5 48.2 0.1 6.6-0.1 13.6-0.3 20.7q-0.1 3.1-0.1 6.3z"/></g></g></g><g clip-path="url(#cp7)"><g clip-path="url(#cp8)"><g clip-path="url(#cp9)"><path class="c" d="m243 228c7.2-24.7 3-57.1-1.9-78.8-5.9-26.1-29.2-35.5-54-34-14.6-0.5-44.6-2.6-74.5-0.7-28.5 1.9-56.8 7.3-71.4 21.3 16.1-6.5 36.7-9.6 57.4-10.9 32.2-2.1 64.7 0.1 80.5 0.6 26.8-1.5 51.9 8.6 58.2 36.8 4.1 18.1 7.8 43 5.7 65.7z"/></g></g></g><g clip-path="url(#cp10)"><g clip-path="url(#cp11)"><path class="c" d="m187.3 44.2h41v41h-41z"/></g></g><g clip-path="url(#cp12)"><g clip-path="url(#cp13)"><g clip-path="url(#cp14)"><path class="c" d="m154.6 130.5l40.7-1.7q0.4 0 0.9 0.1 0.4 0 0.8 0.1 0.4 0.1 0.8 0.2 0.4 0.2 0.8 0.4 0.4 0.2 0.7 0.4 0.4 0.3 0.7 0.5 0.3 0.3 0.6 0.7 0.3 0.3 0.5 0.6 0.2 0.4 0.4 0.8 0.2 0.4 0.3 0.8 0.1 0.4 0.2 0.8 0.1 0.4 0.1 0.8 0 0.5 0 0.9-0.1 0.4-0.2 0.8-0.1 0.4-0.2 0.8-0.1 0.4-0.3 0.8l-19 35.9q-0.2 0.4-0.4 0.7-0.2 0.4-0.5 0.7-0.3 0.3-0.7 0.6-0.3 0.2-0.6 0.5-0.4 0.2-0.8 0.4-0.4 0.1-0.8 0.3-0.4 0.1-0.8 0.2-0.4 0-0.9 0.1-0.4 0-0.8-0.1-0.4 0-0.9-0.1-0.4-0.1-0.8-0.2-0.4-0.2-0.8-0.4-0.3-0.2-0.7-0.4-0.3-0.3-0.7-0.6-0.3-0.2-0.5-0.6-0.3-0.3-0.6-0.7l-21.4-33.7q-1.3-1.6-1.3-3.7-0.1-0.6 0-1.2 0.1-0.6 0.3-1.2 0.3-0.6 0.6-1.2 0.3-0.5 0.8-1 0.4-0.5 0.9-0.8 0.5-0.4 1.1-0.7 0.6-0.3 1.2-0.4 0.6-0.2 1.2-0.2z"/></g></g></g><path class="d" d="m178.4 212.3l-0.9-37.2"/><g clip-path="url(#cp15)"><g clip-path="url(#cp16)"><path class="c" d="m38.1 44.2h40.9v41h-40.9z"/></g></g><g clip-path="url(#cp17)"><path class="e" d="m45.2 58.4c0-4.3 1.3-8.4 3.5-11.8-7.5 3.3-12.7 10.8-12.7 19.6 0 11.8 9.4 21.3 20.9 21.3 7.3 0 13.8-3.8 17.5-9.5-2.5 1.1-5.3 1.7-8.2 1.7-11.6 0-21-9.5-21-21.3z"/></g><path class="b" d="m343.7 133c0-4.7-3.1-7.3-8.7-7.3h-27.9c-5.6 0-8.6 3.1-8.5 8.6 0 8.9 0.1 17.7 0.1 26.5 0 8.8-0.1 17.6-0.1 26.5-0.1 5.6 2.9 8.6 8.5 8.6h1.8c5.6 0 8.6-3 8.5-8.6 0-6.2 0-12.3 0-18.3 4.7 0.1 9.3 0.1 13.8 0.2 5.6 0 8.6-2.5 8.6-6.9 0-4.4-3-6.8-8.6-6.8-4.5 0.1-9.1 0.1-13.8 0.2v-15.5c6 0.1 12.2 0.1 17.6 0.2 5.6 0 8.7-2.6 8.7-7.4z"/><path fill-rule="evenodd" class="b" d="m352.9 160.8c0-24 9.9-36.1 29.7-36.1 19.9 0 29.7 12.1 29.7 36.1 0 24.1-9.8 36.1-29.7 36.1q-29.7 0-29.7-36.1zm40 0c0-17.1-2.3-22.4-10.3-22.4-8 0-10.4 5.3-10.4 22.4 0 17.2 2.4 22.4 10.4 22.4 8 0 10.3-5.2 10.3-22.4z"/><path class="b" d="m470.2 133c0-4.7-3-7.3-8.6-7.3h-28c-5.5 0-8.6 3.1-8.5 8.6 0 8.9 0.1 17.7 0.1 26.5 0 8.8-0.1 17.6-0.1 26.5-0.1 5.6 3 8.6 8.5 8.6h1.9c5.5 0 8.6-3 8.5-8.6 0-6.2 0-12.3 0-18.3 4.6 0.1 9.3 0.1 13.7 0.2 5.6 0 8.6-2.5 8.6-6.9 0-4.4-3-6.8-8.6-6.8-4.4 0.1-9.1 0.1-13.7 0.2v-15.5c5.9 0.1 12.1 0.1 17.6 0.2 5.6 0 8.6-2.6 8.6-7.4z"/><path fill-rule="evenodd" class="b" d="m533.7 186.8c0.1 5.9-3 9.1-8.5 9.1h-1.6c-5.5 0-8.6-2.7-8.6-7.9 0-2.7 0-5.3-0.1-7.8h-17.9c0 2.2-0.1 4.6-0.1 7.1 0 5.6-3 8.6-8.5 8.6-5.5 0-8.5-3-8.4-8.7 0.1-5.5 0.2-10.4 0.5-15.1 2.3-35.8 11.1-47.4 26.1-47.4 17.7 0 26.4 14.7 27.1 62.1zm-19.2-18.6c-1.2-22.7-4.2-29.2-9.3-29.2-5.1 0-7.3 6.5-8 29.2z"/><path fill-rule="evenodd" class="b" d="m546.9 187.3c0.1-8.8 0.2-17.6 0.2-26.5 0-8.8-0.1-17.6-0.2-26.5 0-5.5 3.1-8.6 8.6-8.6h17.4c20.6 0 29.4 6.6 29.4 22.1 0 16.6-12.6 27-32.7 27h-3.7c0 4.2 0 8.3 0.1 12.5 0 5.6-3.1 8.6-8.6 8.6h-1.9c-5.5 0-8.6-3-8.6-8.6zm22.4-26.8c9.5 0 13.5-3.5 13.5-11.9 0-6.3-3.6-8.9-12-8.9h-4.8c-0.1 5.4-0.1 10.7-0.1 20.8z"/><path fill-rule="evenodd" class="b" d="m613.9 187.3c0.1-8.8 0.2-17.6 0.2-26.5 0-8.8-0.1-17.6-0.2-26.5 0-5.5 3.1-8.6 8.6-8.6h17.5c20.5 0 29.3 6.6 29.3 22.1 0 16.6-12.5 27-32.7 27h-3.7c0 4.2 0 8.3 0.1 12.5 0 5.6-3.1 8.6-8.6 8.6h-1.9c-5.5 0-8.6-3-8.6-8.6zm22.4-26.8c9.5 0 13.5-3.5 13.5-11.9 0-6.3-3.6-8.9-12-8.9h-4.8c-0.1 5.4-0.1 10.7-0.1 20.8z"/><path class="b" d="m703 196.9c18.3 0 27.7-7.3 27.7-21.2 0-24.3-33.9-13.8-33.9-30.2 0-4.9 2-8.1 7.8-8.1 4.9 0 7.7 1.4 8.7 5.7 1.2 5.6 2.8 8.7 8 8.7 5.1 0 8.7-2.9 8.3-8.4-1-12-8.9-18.7-24.7-18.7-16.3 0-25.6 6-25.6 21.2 0 24.8 32.3 16.9 32.3 31 0 4.1-2.5 6.1-8 6.1-3.2 0-5.5-0.6-7.1-2-3.4-3.7-4.3-6.7-9.2-6.7h-0.9c-5.1 0-9 3.3-7.5 8.8 2.6 9.1 10.7 13.8 24.1 13.8z"/><path fill-rule="evenodd" class="a" d="m346.8 259q0.2 0.7 0.2 1.3 0 1.4-0.9 2.2-0.9 0.9-2.1 0.9-1 0-1.7-0.6-0.8-0.5-1.3-1.5l-4.1-9.9h-20.7l-4.1 9.9q-0.3 1-1.1 1.6-0.8 0.5-1.7 0.5-1.4 0-2.1-0.7-0.8-0.8-0.8-2 0-0.3 0.2-1.1l17-41.4q0.5-1 1.3-1.6 0.9-0.6 1.9-0.5 1 0 1.8 0.6 0.8 0.5 1.2 1.5zm-28.1-13.7h15.6l-7.8-18.7z"/><path fill-rule="evenodd" class="a" d="m377.9 227.5q4.5 0 8.2 2.3 3.7 2.3 5.8 6.5 2.1 4.1 2.1 9.4 0 5.2-2.1 9.3-2.1 4.1-5.8 6.5-3.7 2.3-8.1 2.3-3.4 0-6.5-1.5-3-1.6-4.8-3.8v14.9q-0.1 1.3-1 2.3-0.9 0.9-2.3 0.9-1.3 0-2.2-0.9-0.9-0.9-0.9-2.3v-42.1q0-1.4 0.9-2.4 0.8-0.9 2.2-0.9 1.4 0 2.3 0.9 0.9 1 1 2.4v1.9q1.6-2.3 4.6-4 3.1-1.7 6.6-1.7zm-0.7 30.4q3 0 5.5-1.6 2.5-1.6 3.9-4.4 1.3-2.8 1.3-6.2 0-3.5-1.3-6.3-1.4-2.8-3.9-4.4-2.5-1.6-5.5-1.6-3.2 0-5.7 1.6-2.4 1.6-3.8 4.4-1.4 2.8-1.4 6.3 0 3.4 1.4 6.3 1.4 2.8 3.8 4.3 2.5 1.6 5.7 1.6z"/><path class="a" d="m415.6 260q0 1.3-0.9 2.3-0.9 0.9-2.3 0.9-1.3 0-2.2-0.9-0.9-1-0.9-2.3v-43.1q0-1.3 0.9-2.3 1-0.9 2.3-0.9 1.3 0 2.2 0.9 0.9 1 0.9 2.3z"/><path class="a" d="m439.1 260q0 1.3-0.9 2.3-0.9 0.9-2.3 0.9-1.4 0-2.3-0.9-0.9-1-0.9-2.3v-29q0-1.3 0.9-2.3 0.9-0.9 2.3-0.9 1.4 0 2.3 0.9 0.9 1 0.9 2.3zm-3.2-36.6q-2 0-2.8-0.7-0.9-0.7-0.9-2.2v-1.1q0-1.6 0.9-2.3 1-0.7 2.8-0.7 1.9 0 2.7 0.7 0.9 0.7 0.9 2.3v1.1q0 1.6-0.9 2.2-0.9 0.7-2.7 0.7z"/><path class="a" d="m470.9 227.3q5.2 0 8.8 1.7 3.5 1.7 3.5 4.3 0 1.1-0.8 2-0.7 0.9-1.8 0.9-0.9 0-1.4-0.2-0.5-0.3-1.4-0.9-0.4-0.4-1.3-0.9-0.7-0.4-2.2-0.7-1.5-0.3-2.7-0.3-3.5 0-6.2 1.6-2.6 1.6-4.1 4.5-1.5 2.8-1.5 6.3 0 3.5 1.5 6.4 1.4 2.8 4 4.4 2.6 1.6 6 1.6 3.4 0 5.6-1.1 0.4-0.3 1.3-0.9 0.6-0.5 1.1-0.8 0.5-0.2 1.3-0.2 1.3 0 2.1 0.8 0.7 0.8 0.7 2.2 0 1.4-1.7 2.8-1.8 1.3-4.8 2.2-3 0.9-6.4 0.9-5.1 0-9-2.4-3.8-2.4-5.9-6.6-2.1-4.1-2.1-9.3 0-5.2 2.2-9.3 2.2-4.2 6.1-6.6 4-2.4 9.1-2.4z"/><path fill-rule="evenodd" class="a" d="m525.8 227.7q1.4 0 2.3 0.9 0.9 0.9 0.9 2.3v29.1q0 1.3-0.9 2.3-0.9 0.9-2.3 0.9-1.4 0-2.3-0.9-0.8-0.9-0.8-2.3v-1.7q-1.8 2.3-4.8 3.9-3 1.7-6.5 1.7-4.5 0-8.3-2.4-3.7-2.3-5.8-6.5-2.1-4.2-2.1-9.4 0-5.2 2.1-9.4 2.1-4.2 5.8-6.5 3.7-2.4 8.1-2.4 3.6 0 6.6 1.5 3.1 1.5 4.9 3.7v-1.6q0-1.4 0.8-2.3 0.9-0.9 2.3-0.9zm-13.6 30.3q3.1 0 5.5-1.6 2.5-1.6 3.9-4.4 1.3-2.9 1.3-6.4 0-3.5-1.3-6.3-1.4-2.8-3.9-4.4-2.4-1.7-5.5-1.7-3.2 0-5.6 1.6-2.5 1.6-3.9 4.4-1.3 2.8-1.3 6.4 0 3.5 1.3 6.4 1.4 2.8 3.9 4.4 2.4 1.6 5.6 1.6z"/><path class="a" d="m555.3 234.4v19.9q0 3.3 3 3.3 0.5 0 1.3-0.2 0.8-0.2 1.3-0.2 0.8 0 1.4 0.7 0.7 0.8 0.7 1.9-0.1 1.4-1.7 2.4-1.6 1-3.6 1-2.2 0-4-0.5-1.9-0.4-3.3-2.3-1.4-1.9-1.4-5.8v-20.2h-3.9q-1.3 0-2.1-0.9-0.9-0.8-0.9-2.1 0-1.3 0.9-2.1 0.8-0.8 2.1-0.8h3.9v-5.6q0-1.3 0.9-2.3 0.9-0.9 2.3-0.9 1.3 0 2.2 0.9 0.9 1 0.9 2.3v5.6h5.6q1.2 0 2.1 0.9 0.8 0.8 0.8 2.1 0 1.3-0.8 2.1-0.9 0.8-2.1 0.8z"/><path class="a" d="m584.6 260q0 1.3-0.9 2.3-0.9 0.9-2.3 0.9-1.3 0-2.2-0.9-0.9-1-0.9-2.3v-29q0-1.3 0.9-2.3 0.9-0.9 2.2-0.9 1.4 0 2.3 0.9 0.9 1 0.9 2.3zm-3.2-36.6q-1.9 0-2.8-0.7-0.8-0.7-0.8-2.2v-1.1q0-1.6 0.9-2.3 0.9-0.7 2.8-0.7 1.9 0 2.7 0.7 0.8 0.7 0.8 2.3v1.1q0 1.6-0.8 2.2-0.9 0.7-2.8 0.7z"/><path class="a" d="m627.9 227.8q1.3 0 2.2 0.8 0.9 0.9 0.9 2 0 0.6-0.5 1.7l-12.7 28.9q-0.4 0.9-1.2 1.4-0.7 0.5-1.6 0.6-1.1 0.1-2-0.4-0.9-0.5-1.3-1.6l-12.7-28.9q-0.4-1-0.4-1.7 0-1.1 0.9-1.9 0.9-0.9 2.3-0.9 1 0 1.8 0.5 0.8 0.5 1.2 1.5l10.2 23.5 10.1-23.5q0.9-2 2.8-2z"/><path fill-rule="evenodd" class="a" d="m678.4 245.7q0 5.2-2.3 9.3-2.4 4.2-6.4 6.5-4.1 2.4-9 2.4-4.9 0-8.9-2.4-4.1-2.3-6.4-6.5-2.3-4.1-2.3-9.3 0-5.3 2.3-9.5 2.3-4.2 6.4-6.5 4-2.4 8.9-2.4 4.9 0 9 2.4 4 2.3 6.4 6.5 2.3 4.2 2.3 9.5zm-6.4 0q0-3.6-1.5-6.5-1.5-2.8-4.1-4.4-2.5-1.6-5.7-1.6-3.1 0-5.7 1.6-2.6 1.6-4.1 4.4-1.5 2.9-1.5 6.5 0 3.5 1.5 6.3 1.5 2.8 4.1 4.4 2.6 1.6 5.7 1.6 3.2 0 5.7-1.6 2.6-1.6 4.1-4.4 1.5-2.8 1.5-6.3z"/><path class="a" d="m691.1 257.7q-0.6-0.9-0.6-1.8 0-1.3 1.4-2.3 0.7-0.4 1.6-0.4 1.2 0 2.2 1 2 2.2 4.3 3.4 2.3 1.1 5.5 1.1 2.5 0 4.5-1.2 1.9-1.1 1.9-3.5 0-2.3-2-3.5-1.9-1.2-5.7-2.2-3.8-1-6.3-2.1-2.4-1.1-4.1-3.2-1.7-2.2-1.7-5.6 0-3 1.7-5.2 1.7-2.3 4.5-3.6 2.8-1.3 6.2-1.3 3.2 0 6.4 1.2 3.2 1.2 5.2 3.7 0.8 0.9 0.8 2 0 1-1.1 2-0.7 0.6-1.7 0.6-1.2 0-1.9-0.8-1.4-1.6-3.5-2.5-2-0.8-4.5-0.8-2.5 0-4.3 1-1.8 1.1-1.8 3.5 0.1 2.4 2.1 3.5 2 1.1 6 2.2 3.6 1 5.9 2 2.4 1.1 4 3.2 1.6 2.1 1.6 5.5 0 3.2-1.8 5.5-1.8 2.3-4.8 3.5-2.9 1.3-6.1 1.3-4.2 0-7.8-1.5-3.6-1.5-6.1-4.7z"/><g clip-path="url(#cp18)"><path class="e" d="m194 58.4c0-4.3 1.3-8.4 3.5-11.8-7.5 3.3-12.8 10.8-12.8 19.6 0 11.8 9.4 21.3 21 21.3 7.3 0 13.7-3.8 17.5-9.5-2.5 1.1-5.3 1.7-8.2 1.7-11.6 0-21-9.5-21-21.3z"/></g></svg>