<?xml version="1.0" standalone="no"?>
<!DOCTYPE svg PUBLIC "-//W3C//DTD SVG 20010904//EN"
 "http://www.w3.org/TR/2001/REC-SVG-20010904/DTD/svg10.dtd">
<svg version="1.0" xmlns="http://www.w3.org/2000/svg"
 width="520.000000pt" height="284.000000pt" viewBox="0 0 520.000000 284.000000"
 preserveAspectRatio="xMidYMid meet">

<g transform="translate(0.000000,284.000000) scale(0.100000,-0.100000)"
fill="#000000" stroke="none">
<path d="M413 2825 c-192 -42 -357 -209 -399 -404 -11 -54 -14 -228 -14 -937
l0 -871 213 -306 212 -307 850 3 850 2 5 127 5 127 119 -129 119 -130 1408 0
1409 0 0 1420 0 1420 -2357 -1 c-1942 0 -2369 -3 -2420 -14z m4665 -1402 l-3
-1298 -1325 -3 -1326 -2 -204 222 -205 221 -3 -221 -2 -222 -763 0 -762 1
-183 264 -183 265 3 877 3 878 22 55 c45 110 146 205 256 239 61 19 109 20
2370 20 l2307 1 -2 -1297z"/>
<path d="M4260 2285 l0 -155 150 0 150 0 0 155 0 155 -150 0 -150 0 0 -155z"/>
<path d="M869 2024 c-66 -20 -137 -72 -176 -128 -62 -90 -63 -100 -63 -623 l0
-473 565 0 565 0 0 310 0 310 -155 0 -155 0 0 -155 0 -155 -255 0 -255 0 0
310 0 310 410 0 410 0 0 155 0 155 -422 -1 c-337 0 -432 -3 -469 -15z"/>
<path d="M1860 1577 l0 -462 158 -158 157 -157 373 0 372 0 0 155 0 155 -375
0 -375 0 0 310 0 310 375 0 375 0 0 155 0 155 -530 0 -530 0 0 -463z"/>
<path d="M3022 1888 l3 -153 208 -3 207 -2 0 -465 0 -465 150 0 150 0 0 465 0
465 260 0 260 0 0 -465 0 -465 155 0 155 0 0 620 0 620 -775 0 -776 0 3 -152z"/>
</g>
</svg>
